<?xml version="1.0" encoding="UTF-8" standalone="no"?>
<svg
   version="1.0"
   width="3600.000000pt"
   height="3493.000000pt"
   viewBox="0 0 3600.000000 3493.000000"
   preserveAspectRatio="xMidYMid meet"
   id="svg22"
   sodipodi:docname="kuber.svg"
   inkscape:version="1.1.1 (3bf5ae0d25, 2021-09-20)"
   xmlns:inkscape="http://www.inkscape.org/namespaces/inkscape"
   xmlns:sodipodi="http://sodipodi.sourceforge.net/DTD/sodipodi-0.dtd"
   xmlns="http://www.w3.org/2000/svg"
   xmlns:svg="http://www.w3.org/2000/svg">
  <defs
     id="defs26" />
  <sodipodi:namedview
     id="namedview24"
     pagecolor="#ffffff"
     bordercolor="#666666"
     borderopacity="1.0"
     inkscape:pageshadow="2"
     inkscape:pageopacity="0.0"
     inkscape:pagecheckerboard="0"
     inkscape:document-units="pt"
     showgrid="false"
     inkscape:zoom="0.18422559"
     inkscape:cx="2399.2323"
     inkscape:cy="2331.3807"
     inkscape:window-width="1920"
     inkscape:window-height="1017"
     inkscape:window-x="2552"
     inkscape:window-y="343"
     inkscape:window-maximized="1"
     inkscape:current-layer="svg22" />
  <g
     transform="translate(0.000000,3493.000000) scale(0.100000,-0.100000)"
     fill="#000000"
     stroke="none"
     id="g20"
     style="fill:#004ce5;fill-opacity:0.81443298">
    <path
       d="M17652 34910 c-155 -24 -335 -70 -477 -122 -84 -31 -12319 -5865 -12740 -6075 -175 -88 -336 -192 -475 -308 -94 -79 -280 -269 -347 -355 -190 -244 -343 -546 -422 -836 -56 -203 -3132 -13595 -3153 -13727 -24 -155 -29 -462 -9 -617 56 -439 211 -821 471 -1165 194 -257 8733 -10863 8822 -10959 385 -411 910 -674 1468 -736 79 -8 1906 -10 7270 -8 6814 3 7170 4 7260 21 556 104 1000 341 1359 725 137 145 8803 10927 8900 11072 141 210 233 404 305 644 101 332 127 724 71 1066 -19 116 -3124 13599 -3160 13725 -111 381 -332 746 -621 1025 -188 182 -363 307 -591 423 -154 78 -12521 5983 -12644 6037 -161 71 -340 124 -544 162 -164 30 -571 35 -743 8z m435 -4551 c170 -23 294 -87 423 -218 129 -131 203 -276 236 -463 13 -75 15 -136 11 -313 -5 -202 -9 -242 -51 -485 -85 -498 -127 -904 -133 -1310 -7 -415 3 -453 161 -617 l89 -93 8 -127 c4 -71 8 -145 9 -165 0 -36 2 -38 33 -38 95 0 575 -66 852 -116 1310 -241 2554 -746 3665 -1487 534 -357 977 -718 1442 -1176 l207 -204 28 18 c15 10 81 56 145 102 l117 84 67 -11 c146 -23 263 -11 359 37 47 24 246 176 369 282 174 150 619 595 831 831 286 320 480 486 677 580 128 62 221 82 368 82 214 1 366 -57 519 -196 206 -189 270 -534 151 -820 -68 -162 -164 -280 -350 -428 -158 -125 -252 -184 -580 -364 -69 -37 -221 -128 -339 -202 -589 -368 -915 -621 -985 -763 -29 -61 -55 -183 -56 -264 l0 -50 -130 -115 c-71 -63 -130 -120 -130 -126 0 -6 13 -29 28 -50 209 -292 621 -1057 815 -1514 381 -898 624 -1820 731 -2775 42 -372 57 -653 57 -1080 0 -438 -19 -774 -66 -1164 -9 -68 -12 -128 -8 -132 4 -4 75 -26 156 -50 137 -39 150 -45 164 -73 33 -64 112 -173 151 -208 23 -21 64 -49 91 -62 58 -30 262 -85 447 -120 280 -54 842 -120 1159 -136 354 -17 429 -27 688 -91 202 -50 337 -121 461 -245 154 -154 229 -330 229 -534 0 -173 -52 -316 -162 -447 -158 -188 -407 -292 -671 -280 -232 11 -466 78 -867 248 -172 72 -530 202 -798 289 -297 96 -620 170 -739 170 -104 0 -203 -38 -326 -126 l-45 -32 -140 24 c-77 13 -149 24 -160 24 -17 0 -27 -18 -59 -117 -54 -165 -167 -471 -241 -648 -627 -1505 -1619 -2830 -2880 -3846 -354 -286 -667 -503 -1117 -778 l-27 -16 63 -149 62 -150 -34 -89 c-84 -225 -67 -318 132 -702 129 -250 432 -743 599 -975 216 -300 278 -399 371 -598 88 -188 107 -257 113 -413 4 -96 1 -145 -11 -210 -61 -297 -269 -516 -554 -580 -68 -15 -231 -12 -307 6 -153 35 -300 120 -413 240 -88 92 -116 134 -191 283 -103 205 -137 301 -241 666 -85 300 -284 851 -399 1106 -171 379 -235 450 -470 526 l-80 26 -72 131 c-40 73 -76 137 -81 143 -6 9 -28 4 -81 -16 -234 -90 -690 -229 -1020 -310 -779 -194 -1525 -284 -2342 -283 -703 0 -1312 62 -1980 202 -483 101 -1087 277 -1456 426 -13 5 -33 -24 -98 -143 -45 -83 -87 -154 -94 -159 -6 -5 -50 -22 -97 -37 -121 -40 -157 -61 -225 -130 -93 -94 -224 -359 -371 -754 -118 -316 -194 -542 -269 -804 -87 -299 -132 -422 -216 -591 -99 -196 -167 -285 -291 -380 -153 -117 -307 -171 -483 -171 -128 1 -207 19 -308 70 -188 94 -317 255 -379 470 -19 65 -22 103 -22 219 -1 174 17 247 108 444 86 184 157 302 329 544 332 466 676 1054 792 1352 40 102 44 206 12 310 -13 44 -32 100 -42 125 l-17 45 66 159 c36 88 66 163 66 167 0 4 -51 38 -112 75 -169 101 -532 346 -718 485 -1116 829 -2016 1852 -2703 3069 -272 483 -558 1129 -722 1630 -21 63 -39 117 -41 119 -1 1 -77 -10 -169 -25 -146 -25 -168 -27 -188 -14 -180 115 -241 140 -351 140 -141 0 -418 -63 -756 -172 -217 -70 -636 -221 -771 -279 -365 -155 -567 -218 -805 -250 -281 -37 -584 76 -749 280 -110 136 -158 271 -159 441 0 127 17 201 78 325 116 235 316 383 621 460 193 48 371 72 630 85 640 31 1453 158 1649 257 99 50 143 96 230 240 41 70 28 63 260 128 l98 28 -6 46 c-70 512 -99 1067 -85 1611 47 1726 560 3407 1494 4895 l116 184 -43 39 c-24 21 -72 65 -108 97 -36 32 -71 63 -78 70 -7 7 -17 54 -23 111 -24 238 -76 309 -424 572 -241 182 -698 473 -1020 650 -260 142 -367 211 -520 333 -141 113 -197 170 -264 274 -200 306 -182 689 45 934 151 163 346 239 584 228 228 -11 370 -73 610 -267 129 -105 247 -222 432 -430 184 -208 666 -685 828 -821 345 -290 439 -331 675 -297 l90 13 120 -85 c66 -47 125 -89 132 -93 8 -5 81 61 200 180 1042 1037 2286 1816 3668 2295 710 246 1472 414 2228 492 76 8 140 16 142 17 2 2 7 74 11 159 l7 154 89 94 c159 166 173 221 165 637 -7 383 -53 820 -134 1285 l-47 265 0 275 c-1 272 0 276 27 363 52 169 124 285 244 397 83 77 156 123 252 156 117 41 200 49 318 33z"
       id="path2"
       style="fill:#004ce5;fill-opacity:0.81443298" />
    <path
       d="M16980 24533 c-14 -2 -99 -15 -190 -29 -1505 -230 -2934 -916 -4045 -1941 -160 -148 -181 -171 -169 -182 44 -40 3290 -2329 3324 -2344 380 -168 820 59 905 467 11 54 49 671 125 2019 61 1068 110 1958 110 1979 0 40 -2 41 -60 31z"
       id="path4"
       style="fill:#004ce5;fill-opacity:0.81443298" />
    <path
       d="M18960 24501 c0 -20 49 -925 110 -2011 106 -1878 113 -1979 135 -2048 32 -101 78 -175 160 -257 121 -121 277 -187 450 -189 113 -1 195 17 288 63 69 34 3297 2315 3297 2329 0 15 -307 292 -485 437 -653 536 -1415 976 -2215 1278 -494 187 -1055 332 -1586 411 l-154 23 0 -36z"
       id="path6"
       style="fill:#004ce5;fill-opacity:0.81443298" />
    <path
       d="M11302 20773 c-715 -1212 -1089 -2643 -1059 -4048 5 -238 31 -663 41 -673 7 -6 3824 1100 3875 1124 126 57 247 177 311 308 68 140 85 292 49 444 -21 89 -86 208 -152 279 -55 59 -2981 2683 -2992 2683 -2 0 -35 -53 -73 -117z"
       id="path8"
       style="fill:#004ce5;fill-opacity:0.81443298" />
    <path
       d="M23100 19550 c-1160 -1039 -1504 -1352 -1537 -1399 -51 -75 -80 -150 -100 -256 -54 -295 125 -610 406 -716 47 -17 3816 -1108 3846 -1112 15 -3 32 239 40 573 29 1141 -207 2305 -681 3366 -120 268 -443 873 -471 881 -4 1 -681 -601 -1503 -1337z"
       id="path10"
       style="fill:#004ce5;fill-opacity:0.81443298" />
    <path
       d="M17035 17630 c-198 -247 -366 -460 -373 -472 -12 -20 1 -87 117 -593 72 -314 131 -573 131 -576 0 -8 1071 -522 1087 -522 13 0 1062 500 1077 514 5 4 68 267 141 585 l133 578 -376 468 -377 468 -600 -1 -600 0 -360 -449z"
       id="path12"
       style="fill:#004ce5;fill-opacity:0.81443298" />
    <path
       d="M21150 14855 c-225 -51 -400 -207 -477 -427 -32 -90 -43 -272 -21 -353 21 -75 1550 -3765 1561 -3765 12 0 262 171 407 278 891 659 1624 1495 2170 2476 109 196 283 553 363 746 93 225 151 379 144 386 -3 3 -893 156 -1979 340 -1395 236 -1993 334 -2043 333 -38 -1 -95 -7 -125 -14z"
       id="path14"
       style="fill:#004ce5;fill-opacity:0.81443298" />
    <path
       d="M14540 14835 c-74 -12 -963 -163 -1975 -335 -1012 -172 -1842 -313 -1843 -315 -6 -5 62 -182 145 -380 92 -218 316 -664 437 -870 110 -186 330 -522 444 -675 256 -345 453 -573 771 -891 314 -313 533 -505 861 -749 183 -136 421 -293 430 -283 11 11 1482 3572 1511 3658 32 94 35 308 5 395 -92 270 -307 441 -586 463 -44 4 -108 -2 -200 -18z"
       id="path16"
       style="fill:#004ce5;fill-opacity:0.81443298" />
    <path
       d="M17842 13250 c-40 -11 -93 -28 -118 -40 -56 -24 -158 -96 -201 -142 -25 -27 -1980 -3541 -1986 -3572 -1 -5 84 -36 188 -68 1365 -424 2816 -462 4205 -109 210 53 530 147 543 160 6 6 -1830 3338 -1919 3481 -149 238 -446 360 -712 290z"
       id="path18"
       style="fill:#004ce5;fill-opacity:0.81443298" />
  </g>
</svg>
